# xmcd
#
# Track frame offsets: 
#        150
#        14662
#        26985
#        37377
#        48299
#        63616
#        79472
#        91886
#        99793
#        114732
#        126170
#        138182
#
# Disc length: 2088 seconds
#
# Revision: 0
# Processed by: cddbd v1.5.2PL0 Copyright (c) Steve Scherf et al.
# Submitted via: ExactAudioCopy v0.99pb5
#
DISCID=a908260c
DTITLE=Carlos Poyares - Seresta A Moda Antiga 
DYEAR=1981
DGENRE=Instrumental
TTITLE0=#EXTM3U
TTITLE1=#EXTINF:193,01 - Caprichos do Destino (Pedro Caetano e Claudin
TTITLE1=or Cruz)
TTITLE2=G:\\Track01.cda
TTITLE3=#EXTINF:164,02 - Se Ela Perguntar (Dilermando Reis e Jair Amor
TTITLE3=im)
TTITLE4=G:\\Track02.cda
TTITLE5=#EXTINF:138,03 - Alma dos Violinos (Lamartine Babo e Alcyr Pir
TTITLE5=es Vermelho)
TTITLE6=G:\\Track03.cda
TTITLE7=#EXTINF:145,04 - Súplica (José Marcílio, Deo e Octávio Mendes)
TTITLE8=G:\\Track04.cda
TTITLE9=#EXTINF:204,05 - Neusa (Antônio Caldas e Cessp de Figueredo)
TTITLE10=G:\\Track05.cda
TTITLE11=#EXTINF:211,06 - Misterioso Amor (Saint Clair Senna)
EXTD=
EXTT0=
EXTT1=
EXTT2=
EXTT3=
EXTT4=
EXTT5=
EXTT6=
EXTT7=
EXTT8=
EXTT9=
EXTT10=
EXTT11=
PLAYORDER=
